# xmcd
#
# Track frame offsets:
#	150
#	14832
#	28167
#
# Disc length: 587 seconds
#
# Revision: 0
# Processed by: cddbd v1.5.2PL0 Copyright (c) Steve Scherf et al.
# Submitted via: audiograbber 1.83.01
#
DISCID=22024903
DTITLE=Die Gipfelstürmer - 1000  Stunden Liebe
DYEAR=2000
DGENRE=Volksmusik
TTITLE0=1000  Stunden Liebe
TTITLE1=Put up your hands
TTITLE2=1000  Stunden Liebe (Discomix)
EXTD=www.hit-radio24.de
EXTT0=
EXTT1=
EXTT2=
PLAYORDER=
